<svg xmlns="http://www.w3.org/2000/svg" viewBox="0 0 512 256"><defs><clipPath id="a" transform="translate(128)"><circle cx="128" cy="128" r="128" fill="none"/></clipPath><radialGradient id="b" cx="256" cy="128" r="128" gradientUnits="userSpaceOnUse"><stop offset=".53" stop-color="#130c0e" stop-opacity="0"/><stop offset=".86" stop-color="#130c0e" stop-opacity=".1"/><stop offset=".95" stop-color="#130c0e" stop-opacity=".48"/><stop offset="1" stop-color="#130c0e" stop-opacity=".8"/></radialGradient></defs><g clip-path="url(#a)"><path data-name="14" fill="#fff" d="M0 0h511.73v255.97H0z"/><path data-name="13" fill="#cf142b" d="M230.28 153.51v102.46h51.18V153.51h230.27v-51.18H281.46V0h-51.18v102.33H0v51.18h230.28z"/><path data-name="12" fill="#00247d" d="M298.52 82.86V0H464.2L298.52 82.86z"/><path data-name="11" fill="#00247d" d="M298.52 173.11v82.86H464.2l-165.68-82.86z"/><path data-name="10" fill="#00247d" d="M213.21 173.11v82.86H47.53l165.68-82.86z"/><path data-name="9" fill="#00247d" d="M213.21 82.86V0H47.53l165.68 82.86z"/><path data-name="8" fill="#00247d" d="M0 23.8v61.52h123.03L0 23.8z"/><path data-name="7" fill="#00247d" d="M511.73 23.8v61.52H388.7L511.73 23.8z"/><path data-name="6" fill="#00247d" d="M511.73 232.18v-61.53H388.7l123.03 61.53z"/><path data-name="5" fill="#00247d" d="M0 232.18v-61.53h123.03L0 232.18z"/><path data-name="4" fill="#cf142b" d="M511.73 0h-28.42L313 85.32h28.43L512 0"/><path data-name="3" fill="#cf142b" d="M198.73 170.65h-28.42L0 255.97h28.42L199 170.65"/><path data-name="2" fill="#cf142b" d="M142.11 85.39h28.42L0 0v14.31l142.11 71.08z"/><path data-name="1" fill="#cf142b" d="M369.53 170.61h-28.42L511.64 256v-14.31l-142.11-71.08z"/></g><circle cx="256" cy="128" r="128" fill="url(#b)"/><ellipse cx="256" cy="66" rx="95" ry="60" fill="#fff" opacity=".3"/></svg>